<mxfile host="app.diagrams.net" modified="2023-12-24T08:29:37.745Z" agent="Mozilla/5.0 (Windows NT 10.0; Win64; x64) AppleWebKit/537.36 (KHTML, like Gecko) Chrome/120.0.0.0 Safari/537.36 Edg/120.0.0.0" etag="S54SnoLkzD0Tm_ym7WqO" version="22.1.11" type="onedrive">
  <diagram name="Page-1" id="7IXxYpijfGj41JpdGvOJ">
    <mxGraphModel grid="1" page="1" gridSize="10" guides="1" tooltips="1" connect="1" arrows="1" fold="1" pageScale="1" pageWidth="850" pageHeight="1100" math="0" shadow="0">
      <root>
        <mxCell id="0" />
        <mxCell id="1" parent="0" />
        <mxCell id="EVKUPrjJbYO9HPW_H0FS-4" style="edgeStyle=orthogonalEdgeStyle;rounded=0;orthogonalLoop=1;jettySize=auto;html=1;dashed=1;" edge="1" parent="1" source="EVKUPrjJbYO9HPW_H0FS-1" target="EVKUPrjJbYO9HPW_H0FS-2">
          <mxGeometry relative="1" as="geometry">
            <Array as="points">
              <mxPoint x="390" y="320" />
              <mxPoint x="390" y="320" />
            </Array>
          </mxGeometry>
        </mxCell>
        <mxCell id="EVKUPrjJbYO9HPW_H0FS-1" value="Đăng nhập" style="rounded=0;whiteSpace=wrap;html=1;" vertex="1" parent="1">
          <mxGeometry x="330" y="210" width="120" height="60" as="geometry" />
        </mxCell>
        <mxCell id="EVKUPrjJbYO9HPW_H0FS-5" style="edgeStyle=orthogonalEdgeStyle;rounded=0;orthogonalLoop=1;jettySize=auto;html=1;exitX=0.5;exitY=1;exitDx=0;exitDy=0;entryX=0.5;entryY=0;entryDx=0;entryDy=0;dashed=1;" edge="1" parent="1" source="EVKUPrjJbYO9HPW_H0FS-2" target="EVKUPrjJbYO9HPW_H0FS-3">
          <mxGeometry relative="1" as="geometry" />
        </mxCell>
        <mxCell id="EVKUPrjJbYO9HPW_H0FS-2" value="Màn hình chính" style="rounded=0;whiteSpace=wrap;html=1;" vertex="1" parent="1">
          <mxGeometry x="330" y="340" width="120" height="60" as="geometry" />
        </mxCell>
        <mxCell id="EVKUPrjJbYO9HPW_H0FS-3" value="&lt;span id=&quot;selected_text&quot;&gt;&lt;/span&gt;Chấm công nhân viên" style="rounded=0;whiteSpace=wrap;html=1;" vertex="1" parent="1">
          <mxGeometry x="330" y="450" width="120" height="60" as="geometry" />
        </mxCell>
      </root>
    </mxGraphModel>
  </diagram>
</mxfile>
